<svg xmlns="http://www.w3.org/2000/svg" xmlns:xlink="http://www.w3.org/1999/xlink" viewBox="0 0 512 512" width="512" height="512" style="width: 100%; height: 100%; transform: translate3d(0,0,0);" preserveAspectRatio="xMidYMid meet"><defs><clipPath id="__lottie_element_239"><rect width="512" height="512" x="0" y="0"></rect></clipPath><clipPath id="__lottie_element_241"><path d="M0,0 L24,0 L24,24 L0,24z"></path></clipPath><linearGradient id="__lottie_element_247" spreadMethod="pad" gradientUnits="userSpaceOnUse" x1="9.378999710083008" y1="6.379000186920166" x2="20.621000289916992" y2="17.621000289916992"><stop offset="0%" stop-color="rgb(255,255,255)" stop-opacity="0.6000000238418579"></stop><stop offset="100%" stop-color="rgb(255,255,255)" stop-opacity="0.30000001192092896"></stop></linearGradient><linearGradient id="__lottie_element_248" spreadMethod="pad" gradientUnits="userSpaceOnUse" x1="9.378999710083008" y1="6.379000186920166" x2="20.621000289916992" y2="17.621000289916992"><stop offset="0%" stop-color="rgb(255,255,255)" stop-opacity="0.6000000238418579"></stop><stop offset="49%" stop-color="rgb(255,255,255)" stop-opacity="0"></stop><stop offset="100%" stop-color="rgb(255,255,255)" stop-opacity="0.30000001192092896"></stop></linearGradient></defs><g clip-path="url(#__lottie_element_239)"><g clip-path="url(#__lottie_element_241)" style="display: block;" transform="matrix(21.33333396911621,0,0,21.33333396911621,0,0)" opacity="1"><g style="display: block;" transform="matrix(1,0,0,1,0,0)" opacity="1"><g opacity="1" transform="matrix(1,0,0,1,0,0)"><g opacity="1" transform="matrix(1,0,0,1,0,0)"><path fill="url(#__lottie_element_247)" fill-opacity="1" d=" M12.243000030517578,12 C14.17199993133545,10.071000099182129 16.743000030517578,7.5 17.121999740600586,7.120999813079834 C18.29400062561035,5.948999881744385 18.29400062561035,4.050000190734863 17.121999740600586,2.878000020980835 C15.949999809265137,1.7059999704360962 14.050999641418457,1.7059999704360962 12.878999710083008,2.878000020980835 C12.293000221252441,3.4639999866485596 6.465000152587891,9.291999816894531 5.879000186920166,9.878000259399414 C5.732999801635742,10.02400016784668 5.604000091552734,10.182000160217285 5.494999885559082,10.348999977111816 C4.835999965667725,11.347000122070312 4.835999965667725,12.652000427246094 5.494999885559082,13.649999618530273 C5.605000019073486,13.815999984741211 5.732999801635742,13.973999977111816 5.879000186920166,14.121000289916992 C5.879000186920166,14.121000289916992 5.879000186920166,14.121000289916992 5.879000186920166,14.121000289916992 C5.879000186920166,14.121000289916992 5.879000186920166,14.121000289916992 5.879000186920166,14.121000289916992 C6.465000152587891,14.706999778747559 12.293000221252441,20.53499984741211 12.878999710083008,21.121000289916992 C14.050999641418457,22.292999267578125 15.949999809265137,22.292999267578125 17.121999740600586,21.121000289916992 C18.29400062561035,19.948999404907227 18.29400062561035,18.049999237060547 17.121999740600586,16.878000259399414 C16.742000579833984,16.5 14.170999526977539,13.928999900817871 12.243000030517578,12 C12.243000030517578,12 12.243000030517578,12 12.243000030517578,12z"></path></g><g opacity="1" transform="matrix(1,0,0,1,0,0)"><path fill="url(#__lottie_element_248)" fill-opacity="1" d=" M15,2 C14.232000350952148,2 13.46399974822998,2.2929999828338623 12.878999710083008,2.878999948501587 C12.293000221252441,3.4649999141693115 6.465000152587891,9.293000221252441 5.879000186920166,9.878999710083008 C5.732999801635742,10.024999618530273 5.604000091552734,10.182999610900879 5.494999885559082,10.350000381469727 C4.835999965667725,11.347999572753906 4.835999965667725,12.652999877929688 5.494999885559082,13.651000022888184 C5.605000019073486,13.817000389099121 5.732999801635742,13.975000381469727 5.879000186920166,14.121999740600586 C5.879000186920166,14.121999740600586 5.879000186920166,14.121999740600586 5.879000186920166,14.121999740600586 C5.879000186920166,14.121999740600586 5.879000186920166,14.121999740600586 5.879000186920166,14.121999740600586 C6.465000152587891,14.708000183105469 12.293000221252441,20.535999298095703 12.878999710083008,21.121999740600586 C13.46399974822998,21.707000732421875 14.232000350952148,22 15,22 C15.767999649047852,22 16.535999298095703,21.707000732421875 17.121000289916992,21.121000289916992 C18.292999267578125,19.948999404907227 18.292999267578125,18.049999237060547 17.121000289916992,16.878000259399414 C16.742000579833984,16.499000549316406 14.170999526977539,13.928000450134277 12.241999626159668,11.99899959564209 C14.170999526977539,10.069999694824219 16.742000579833984,7.499000072479248 17.121000289916992,7.119999885559082 C18.292999267578125,5.947999954223633 18.292999267578125,4.048999786376953 17.121000289916992,2.877000093460083 C16.535999298095703,2.2929999828338623 15.767999649047852,2 15,2 C15,2 15,2 15,2 C15,2 15,2 15,2z M15,2.5 C15.668000221252441,2.5 16.29599952697754,2.759999990463257 16.76799964904785,3.2320001125335693 C17.239999771118164,3.7039999961853027 17.5,4.331999778747559 17.5,5 C17.5,5.668000221252441 17.239999771118164,6.296000003814697 16.76799964904785,6.76800012588501 C16.76799964904785,6.76800012588501 11.888999938964844,11.647000312805176 11.888999938964844,11.647000312805176 C11.888999938964844,11.647000312805176 11.53600025177002,12 11.53600025177002,12 C11.53600025177002,12 11.890000343322754,12.354000091552734 11.890000343322754,12.354000091552734 C11.890000343322754,12.354000091552734 16.768999099731445,17.232999801635742 16.768999099731445,17.232999801635742 C17.239999771118164,17.70400047302246 17.5,18.332000732421875 17.5,19 C17.5,19.667999267578125 17.239999771118164,20.29599952697754 16.76799964904785,20.76799964904785 C16.29599952697754,21.239999771118164 15.668000221252441,21.5 15,21.5 C14.331999778747559,21.5 13.704000473022461,21.239999771118164 13.232000350952148,20.76799964904785 C13.232000350952148,20.76799964904785 7.171999931335449,14.708000183105469 7.171999931335449,14.708000183105469 C7.171999931335449,14.708000183105469 6.23199987411499,13.767999649047852 6.23199987411499,13.767999649047852 C6.111999988555908,13.64799976348877 6.004000186920166,13.515999794006348 5.910999774932861,13.375 C5.359000205993652,12.539999961853027 5.359000205993652,11.460000038146973 5.910999774932861,10.625 C6.004000186920166,10.484999656677246 6.111999988555908,10.35200023651123 6.23199987411499,10.232000350952148 C6.23199987411499,10.232000350952148 13.232000350952148,3.2320001125335693 13.232000350952148,3.2320001125335693 C13.704000473022461,2.759999990463257 14.331999778747559,2.5 15,2.5"></path></g></g></g></g></g></svg>