<svg xmlns="http://www.w3.org/2000/svg" xmlns:xlink="http://www.w3.org/1999/xlink" viewBox="0 0 512 512" width="512" height="512" style="width: 100%; height: 100%; transform: translate3d(0,0,0);" preserveAspectRatio="xMidYMid meet"><defs><clipPath id="__lottie_element_25"><rect width="512" height="512" x="0" y="0"></rect></clipPath><clipPath id="__lottie_element_27"><path d="M0,0 L24,0 L24,24 L0,24z"></path></clipPath><linearGradient id="__lottie_element_33" spreadMethod="pad" gradientUnits="userSpaceOnUse" x1="4.697000026702881" y1="6.993000030517578" x2="19.094999313354492" y2="21.391000747680664"><stop offset="0%" stop-color="rgb(255,255,255)" stop-opacity="0.6000000238418579"></stop><stop offset="100%" stop-color="rgb(255,255,255)" stop-opacity="0.30000001192092896"></stop></linearGradient><linearGradient id="__lottie_element_34" spreadMethod="pad" gradientUnits="userSpaceOnUse" x1="0" y1="11.5" x2="24" y2="11.5"><stop offset="0%" stop-color="rgb(255,255,255)" stop-opacity="0.6000000238418579"></stop><stop offset="49%" stop-color="rgb(255,255,255)" stop-opacity="0"></stop><stop offset="100%" stop-color="rgb(255,255,255)" stop-opacity="0.30000001192092896"></stop></linearGradient><linearGradient id="__lottie_element_35" spreadMethod="pad" gradientUnits="userSpaceOnUse" x1="9.39799976348877" y1="10.187999725341797" x2="14.60200023651123" y2="15.390999794006348"><stop offset="0%" stop-color="rgb(255,255,255)" stop-opacity="0.699999988079071"></stop><stop offset="52%" stop-color="rgb(255,255,255)" stop-opacity="0.44999998807907104"></stop><stop offset="100%" stop-color="rgb(255,255,255)" stop-opacity="0.550000011920929"></stop></linearGradient></defs><g clip-path="url(#__lottie_element_25)"><g clip-path="url(#__lottie_element_27)" style="display: block;" transform="matrix(21.33333396911621,0,0,21.33333396911621,0,0)" opacity="1"><g style="display: block;" transform="matrix(1,0,0,1,0,0)" opacity="1"><g opacity="1" transform="matrix(1,0,0,1,0,0)"><g opacity="1" transform="matrix(1,0,0,1,0,0)"><g opacity="1" transform="matrix(1,0,0,1,0,0)"><path fill="url(#__lottie_element_33)" fill-opacity="1" d=" M19.482999801635742,8.192000389099121 C18.344999313354492,5.160999774932861 15.428999900817871,3 12,3 C7.888000011444092,3 4.504000186920166,6.104000091552734 4.054999828338623,10.095000267028809 C1.746000051498413,10.538000106811523 0,12.562000274658203 0,15 C0,17.76099967956543 2.239000082015991,20 5,20 C5,20 18,20 18,20 C21.31399917602539,20 24,17.31399917602539 24,14 C24,11.199000358581543 22.077999114990234,8.854000091552734 19.482999801635742,8.192000389099121 C19.482999801635742,8.192000389099121 19.482999801635742,8.192000389099121 19.482999801635742,8.192000389099121z"></path></g><g opacity="1" transform="matrix(1,0,0,1,0,0)"><path fill="url(#__lottie_element_34)" fill-opacity="1" d=" M12,3 C7.888000011444092,3 4.504000186920166,6.104000091552734 4.054999828338623,10.095000267028809 C1.746000051498413,10.538000106811523 0,12.562000274658203 0,15 C0,17.76099967956543 2.239000082015991,20 5,20 C5,20 18,20 18,20 C21.31399917602539,20 24,17.31399917602539 24,14 C24,11.199000358581543 22.077999114990234,8.854000091552734 19.482999801635742,8.192000389099121 C18.344999313354492,5.160999774932861 15.428999900817871,3 12,3 C12,3 12,3 12,3 C12,3 12,3 12,3z M12,3.5 C15.102999687194824,3.5 17.922000885009766,5.455999851226807 19.014999389648438,8.368000030517578 C19.014999389648438,8.368000030517578 19.10700035095215,8.612000465393066 19.10700035095215,8.612000465393066 C19.10700035095215,8.612000465393066 19.360000610351562,8.675999641418457 19.360000610351562,8.675999641418457 C21.79800033569336,9.29699993133545 23.5,11.486000061035156 23.5,13.99899959564209 C23.5,17.031999588012695 21.033000946044922,19.499000549316406 18,19.499000549316406 C18,19.499000549316406 5,19.499000549316406 5,19.499000549316406 C2.5190000534057617,19.499000549316406 0.5,17.479999542236328 0.5,14.99899959564209 C0.5,12.847000122070312 2.0350000858306885,10.991000175476074 4.14900016784668,10.585000038146973 C4.14900016784668,10.585000038146973 4.510000228881836,10.515999794006348 4.510000228881836,10.515999794006348 C4.510000228881836,10.515999794006348 4.551000118255615,10.149999618530273 4.551000118255615,10.149999618530273 C4.979000091552734,6.359000205993652 8.180999755859375,3.5 12,3.5"></path></g></g></g><g opacity="1" transform="matrix(1,0,0,1,0,0)"><path fill="url(#__lottie_element_35)" fill-opacity="1" d=" M15.293999671936035,13 C15.293999671936035,13 13,13 13,13 C13,13 13,9 13,9 C13,8.447999954223633 12.552000045776367,8 12,8 C11.447999954223633,8 11,8.447999954223633 11,9 C11,9 11,13 11,13 C11,13 8.706000328063965,13 8.706000328063965,13 C8.090999603271484,13 7.7820000648498535,13.741999626159668 8.21500015258789,14.178000450134277 C8.21500015258789,14.178000450134277 11.289999961853027,17.281999588012695 11.289999961853027,17.281999588012695 C11.680999755859375,17.677000045776367 12.319999694824219,17.677000045776367 12.711000442504883,17.281999588012695 C12.711000442504883,17.281999588012695 15.78600025177002,14.178000450134277 15.78600025177002,14.178000450134277 C16.218000411987305,13.741999626159668 15.907999992370605,13 15.293999671936035,13 C15.293999671936035,13 15.293999671936035,13 15.293999671936035,13z"></path></g></g></g></g></svg>