<svg xmlns="http://www.w3.org/2000/svg" xmlns:xlink="http://www.w3.org/1999/xlink" viewBox="0 0 512 512" width="512" height="512" style="width: 100%; height: 100%; transform: translate3d(0,0,0);" preserveAspectRatio="xMidYMid meet"><defs><clipPath id="__lottie_element_322"><rect width="512" height="512" x="0" y="0"></rect></clipPath><clipPath id="__lottie_element_324"><path d="M0,0 L24,0 L24,24 L0,24z"></path></clipPath><linearGradient id="__lottie_element_330" spreadMethod="pad" gradientUnits="userSpaceOnUse" x1="3.0859999656677246" y1="3.0859999656677246" x2="20.913999557495117" y2="20.913999557495117"><stop offset="0%" stop-color="rgb(255,255,255)" stop-opacity="0.6000000238418579"></stop><stop offset="100%" stop-color="rgb(255,255,255)" stop-opacity="0.30000001192092896"></stop></linearGradient><linearGradient id="__lottie_element_331" spreadMethod="pad" gradientUnits="userSpaceOnUse" x1="3.0859999656677246" y1="3.0859999656677246" x2="20.913999557495117" y2="20.913999557495117"><stop offset="0%" stop-color="rgb(255,255,255)" stop-opacity="0.6000000238418579"></stop><stop offset="49%" stop-color="rgb(255,255,255)" stop-opacity="0"></stop><stop offset="100%" stop-color="rgb(255,255,255)" stop-opacity="0.30000001192092896"></stop></linearGradient></defs><g clip-path="url(#__lottie_element_322)"><g clip-path="url(#__lottie_element_324)" style="display: block;" transform="matrix(21.33333396911621,0,0,21.33333396911621,0,0)" opacity="1"><g style="display: block;" transform="matrix(1,0,0,1,0,0)" opacity="1"><g opacity="1" transform="matrix(1,0,0,1,0,0)"><g opacity="1" transform="matrix(1,0,0,1,0,0)"><path fill="url(#__lottie_element_330)" fill-opacity="1" d=" M20,17 C20,17 4,17 4,17 C2.8949999809265137,17 2,17.895000457763672 2,19 C2,20.104999542236328 2.8949999809265137,21 4,21 C4,21 20,21 20,21 C21.104999542236328,21 22,20.104999542236328 22,19 C22,17.895000457763672 21.104999542236328,17 20,17 C20,17 20,17 20,17z M4,7 C4,7 20,7 20,7 C21.104999542236328,7 22,6.105000019073486 22,5 C22,3.8949999809265137 21.104999542236328,3 20,3 C20,3 4,3 4,3 C2.8949999809265137,3 2,3.8949999809265137 2,5 C2,6.105000019073486 2.8949999809265137,7 4,7 C4,7 4,7 4,7z M22,12 C22,13.104999542236328 21.104999542236328,14 20,14 C20,14 4,14 4,14 C2.8949999809265137,14 2,13.104999542236328 2,12 C2,10.895000457763672 2.8949999809265137,10 4,10 C4,10 20,10 20,10 C21.104999542236328,10 22,10.895000457763672 22,12 C22,12 22,12 22,12z"></path></g><g opacity="1" transform="matrix(1,0,0,1,0,0)"><path fill="url(#__lottie_element_331)" fill-opacity="1" d=" M20,17 C20,17 4,17 4,17 C2.8949999809265137,17 2,17.895000457763672 2,19 C2,20.104999542236328 2.8949999809265137,21 4,21 C4,21 20,21 20,21 C21.104999542236328,21 22,20.104999542236328 22,19 C22,17.895000457763672 21.104999542236328,17 20,17 C20,17 20,17 20,17 C20,17 20,17 20,17z M20,10 C20,10 4,10 4,10 C2.8949999809265137,10 2,10.895000457763672 2,12 C2,13.104999542236328 2.8949999809265137,14 4,14 C4,14 20,14 20,14 C21.104999542236328,14 22,13.104999542236328 22,12 C22,10.895000457763672 21.104999542236328,10 20,10 C20,10 20,10 20,10 C20,10 20,10 20,10z M20,3 C20,3 4,3 4,3 C2.8949999809265137,3 2,3.8949999809265137 2,5 C2,6.105000019073486 2.8949999809265137,7 4,7 C4,7 20,7 20,7 C21.104999542236328,7 22,6.105000019073486 22,5 C22,3.8949999809265137 21.104999542236328,3 20,3 C20,3 20,3 20,3 C20,3 20,3 20,3z M20,17.5 C20.82699966430664,17.5 21.5,18.17300033569336 21.5,19 C21.5,19.82699966430664 20.82699966430664,20.5 20,20.5 C20,20.5 4,20.5 4,20.5 C3.1730000972747803,20.5 2.5,19.82699966430664 2.5,19 C2.5,18.17300033569336 3.1730000972747803,17.5 4,17.5 C4,17.5 20,17.5 20,17.5 M20,10.5 C20.82699966430664,10.5 21.5,11.17300033569336 21.5,12 C21.5,12.82699966430664 20.82699966430664,13.5 20,13.5 C20,13.5 4,13.5 4,13.5 C3.1730000972747803,13.5 2.5,12.82699966430664 2.5,12 C2.5,11.17300033569336 3.1730000972747803,10.5 4,10.5 C4,10.5 20,10.5 20,10.5 M20,3.5 C20.82699966430664,3.5 21.5,4.172999858856201 21.5,5 C21.5,5.827000141143799 20.82699966430664,6.5 20,6.5 C20,6.5 4,6.5 4,6.5 C3.1730000972747803,6.5 2.5,5.827000141143799 2.5,5 C2.5,4.172999858856201 3.1730000972747803,3.5 4,3.5 C4,3.5 20,3.5 20,3.5"></path></g></g></g></g></g></svg>