<svg xmlns="http://www.w3.org/2000/svg" xmlns:xlink="http://www.w3.org/1999/xlink" viewBox="0 0 512 512" width="512" height="512" style="width: 100%; height: 100%; transform: translate3d(0,0,0);" preserveAspectRatio="xMidYMid meet"><defs><clipPath id="__lottie_element_2"><rect width="512" height="512" x="0" y="0"></rect></clipPath><clipPath id="__lottie_element_4"><path d="M0,0 L24,0 L24,24 L0,24z"></path></clipPath><linearGradient id="__lottie_element_10" spreadMethod="pad" gradientUnits="userSpaceOnUse" x1="4.964000225067139" y1="4.964000225067139" x2="19.035999298095703" y2="19.035999298095703"><stop offset="0%" stop-color="rgb(255,255,255)" stop-opacity="0.6000000238418579"></stop><stop offset="100%" stop-color="rgb(255,255,255)" stop-opacity="0.30000001192092896"></stop></linearGradient><linearGradient id="__lottie_element_11" spreadMethod="pad" gradientUnits="userSpaceOnUse" x1="4.964000225067139" y1="4.964000225067139" x2="19.035999298095703" y2="19.035999298095703"><stop offset="0%" stop-color="rgb(255,255,255)" stop-opacity="0.6000000238418579"></stop><stop offset="49%" stop-color="rgb(255,255,255)" stop-opacity="0"></stop><stop offset="100%" stop-color="rgb(255,255,255)" stop-opacity="0.30000001192092896"></stop></linearGradient><linearGradient id="__lottie_element_12" spreadMethod="pad" gradientUnits="userSpaceOnUse" x1="9.17199993133545" y1="9.17199993133545" x2="14.82800006866455" y2="14.82800006866455"><stop offset="0%" stop-color="rgb(255,255,255)" stop-opacity="0.699999988079071"></stop><stop offset="52%" stop-color="rgb(255,255,255)" stop-opacity="0.44999998807907104"></stop><stop offset="100%" stop-color="rgb(255,255,255)" stop-opacity="0.550000011920929"></stop></linearGradient></defs><g clip-path="url(#__lottie_element_2)"><g clip-path="url(#__lottie_element_4)" style="display: block;" transform="matrix(21.33333396911621,0,0,21.33333396911621,0,0)" opacity="1"><g style="display: block;" transform="matrix(1,0,0,1,0,0)" opacity="1"><g opacity="1" transform="matrix(1,0,0,1,0,0)"><g opacity="1" transform="matrix(1,0,0,1,0,0)"><path fill="url(#__lottie_element_10)" fill-opacity="1" d=" M16,18.92799949645996 C16.67799949645996,18.53700065612793 17.458999633789062,18.503999710083008 18.135000228881836,18.763999938964844 C18.698999404907227,18.981000900268555 19.3439998626709,18.801000595092773 19.726999282836914,18.333999633789062 C20.40999984741211,17.500999450683594 20.961000442504883,16.555999755859375 21.347999572753906,15.529000282287598 C21.569000244140625,14.942000389099121 21.360000610351562,14.29699993133545 20.881000518798828,13.890999794006348 C20.341999053955078,13.437000274658203 20,12.76099967956543 20,12 C20,11.23900032043457 20.341999053955078,10.562999725341797 20.8799991607666,10.107000350952148 C21.358999252319336,9.701000213623047 21.569000244140625,9.057000160217285 21.347000122070312,8.468999862670898 C20.959999084472656,7.442999839782715 20.40999984741211,6.497000217437744 19.72599983215332,5.664000034332275 C19.343000411987305,5.197000026702881 18.697999954223633,5.017000198364258 18.134000778198242,5.234000205993652 C17.458999633789062,5.495999813079834 16.67799949645996,5.4629998207092285 16,5.072000026702881 C15.319999694824219,4.678999900817871 14.899999618530273,4.015999794006348 14.789999961853027,3.296999931335449 C14.699999809265137,2.7090001106262207 14.234000205993652,2.239000082015991 13.647000312805176,2.1389999389648438 C13.111000061035156,2.0480000972747803 12.560999870300293,2 12,2 C11.439000129699707,2 10.888999938964844,2.0480000972747803 10.352999687194824,2.1389999389648438 C9.765999794006348,2.239000082015991 9.300999641418457,2.7090001106262207 9.210000038146973,3.296999931335449 C9.100000381469727,4.015999794006348 8.680000305175781,4.678999900817871 8,5.072000026702881 C7.322000026702881,5.4629998207092285 6.540999889373779,5.495999813079834 5.864999771118164,5.235000133514404 C5.301000118255615,5.01800012588501 4.656000137329102,5.197999954223633 4.2729997634887695,5.664999961853027 C3.5899999141693115,6.498000144958496 3.0399999618530273,7.442999839782715 2.6530001163482666,8.470000267028809 C2.430999994277954,9.057000160217285 2.6410000324249268,9.70199966430664 3.119999885559082,10.107000350952148 C3.6579999923706055,10.562999725341797 4,11.23900032043457 4,12 C4,12.76099967956543 3.6579999923706055,13.437000274658203 3.119999885559082,13.892999649047852 C2.6410000324249268,14.298999786376953 2.430999994277954,14.942999839782715 2.6530001163482666,15.531000137329102 C3.0399999618530273,16.55699920654297 3.5899999141693115,17.503000259399414 4.27400016784668,18.336000442504883 C4.6570000648498535,18.80299949645996 5.302000045776367,18.982999801635742 5.866000175476074,18.766000747680664 C6.540999889373779,18.503999710083008 7.322000026702881,18.53700065612793 8,18.92799949645996 C8.680000305175781,19.320999145507812 9.100000381469727,19.983999252319336 9.210000038146973,20.702999114990234 C9.300000190734863,21.291000366210938 9.765999794006348,21.76099967956543 10.352999687194824,21.861000061035156 C10.888999938964844,21.95199966430664 11.439000129699707,22 12,22 C12.560999870300293,22 13.111000061035156,21.95199966430664 13.647000312805176,21.861000061035156 C14.234000205993652,21.761999130249023 14.699999809265137,21.29199981689453 14.789999961853027,20.702999114990234 C14.899999618530273,19.983999252319336 15.319999694824219,19.320999145507812 16,18.92799949645996 C16,18.92799949645996 16,18.92799949645996 16,18.92799949645996z"></path></g><g opacity="1" transform="matrix(1,0,0,1,0,0)"><path fill="url(#__lottie_element_11)" fill-opacity="1" d=" M12,2 C11.439000129699707,2 10.888999938964844,2.0480000972747803 10.352999687194824,2.1389999389648438 C9.765999794006348,2.239000082015991 9.300999641418457,2.7090001106262207 9.210000038146973,3.296999931335449 C9.100000381469727,4.015999794006348 8.680000305175781,4.678999900817871 8,5.072000026702881 C7.610000133514404,5.296999931335449 7.184999942779541,5.4039998054504395 6.765999794006348,5.4039998054504395 C6.456999778747559,5.4039998054504395 6.1519999504089355,5.3460001945495605 5.864999771118164,5.236000061035156 C5.704999923706055,5.173999786376953 5.5370001792907715,5.144000053405762 5.372000217437744,5.144000053405762 C4.955999851226807,5.144000053405762 4.547999858856201,5.330999851226807 4.27400016784668,5.664999961853027 C3.5899999141693115,6.498000144958496 3.0399999618530273,7.442999839782715 2.6530001163482666,8.470000267028809 C2.430999994277954,9.057000160217285 2.6410000324249268,9.70199966430664 3.119999885559082,10.107000350952148 C3.6579999923706055,10.562999725341797 4,11.23900032043457 4,12 C4,12.76099967956543 3.6579999923706055,13.437000274658203 3.119999885559082,13.892999649047852 C2.6410000324249268,14.298999786376953 2.430999994277954,14.942999839782715 2.6530001163482666,15.531000137329102 C3.0399999618530273,16.55699920654297 3.5899999141693115,17.503000259399414 4.27400016784668,18.336000442504883 C4.547999858856201,18.670000076293945 4.955999851226807,18.85700035095215 5.372000217437744,18.85700035095215 C5.538000106811523,18.85700035095215 5.704999923706055,18.82699966430664 5.864999771118164,18.764999389648438 C6.1519999504089355,18.65399932861328 6.456999778747559,18.597000122070312 6.765999794006348,18.597000122070312 C7.184999942779541,18.597000122070312 7.610000133514404,18.70400047302246 8,18.929000854492188 C8.680000305175781,19.32200050354004 9.100000381469727,19.985000610351562 9.210000038146973,20.70400047302246 C9.300000190734863,21.29199981689453 9.765999794006348,21.761999130249023 10.352999687194824,21.86199951171875 C10.888999938964844,21.95199966430664 11.439000129699707,22 12,22 C12.560999870300293,22 13.111000061035156,21.95199966430664 13.647000312805176,21.861000061035156 C14.234000205993652,21.761999130249023 14.699999809265137,21.29199981689453 14.789999961853027,20.702999114990234 C14.899999618530273,19.983999252319336 15.319999694824219,19.320999145507812 16,18.92799949645996 C16.389999389648438,18.702999114990234 16.815000534057617,18.59600067138672 17.233999252319336,18.59600067138672 C17.542999267578125,18.59600067138672 17.847999572753906,18.65399932861328 18.135000228881836,18.763999938964844 C18.295000076293945,18.826000213623047 18.46299934387207,18.856000900268555 18.628000259399414,18.856000900268555 C19.04400062561035,18.856000900268555 19.45199966430664,18.66900062561035 19.72599983215332,18.334999084472656 C20.409000396728516,17.50200080871582 20.959999084472656,16.55699920654297 21.347000122070312,15.529999732971191 C21.56800079345703,14.942999839782715 21.358999252319336,14.29800033569336 20.8799991607666,13.892000198364258 C20.341999053955078,13.437000274658203 20,12.76099967956543 20,12 C20,11.23900032043457 20.341999053955078,10.562999725341797 20.8799991607666,10.107000350952148 C21.358999252319336,9.701000213623047 21.569000244140625,9.057000160217285 21.347000122070312,8.468999862670898 C20.959999084472656,7.442999839782715 20.40999984741211,6.497000217437744 19.72599983215332,5.664000034332275 C19.45199966430664,5.329999923706055 19.04400062561035,5.14300012588501 18.628000259399414,5.14300012588501 C18.461999893188477,5.14300012588501 18.295000076293945,5.172999858856201 18.135000228881836,5.235000133514404 C17.847999572753906,5.3460001945495605 17.542999267578125,5.4029998779296875 17.233999252319336,5.4029998779296875 C16.815000534057617,5.4029998779296875 16.389999389648438,5.296000003814697 16,5.071000099182129 C15.319999694824219,4.677999973297119 14.899999618530273,4.014999866485596 14.789999961853027,3.2960000038146973 C14.699999809265137,2.7079999446868896 14.234000205993652,2.23799991607666 13.647000312805176,2.138000011444092 C13.111000061035156,2.0480000972747803 12.560999870300293,2 12,2 C12,2 12,2 12,2 C12,2 12,2 12,2z M12,2.5 C12.520000457763672,2.5 13.045999526977539,2.5439999103546143 13.562999725341797,2.631999969482422 C13.937000274658203,2.696000099182129 14.23799991607666,3 14.295999526977539,3.372999906539917 C14.434000015258789,4.27400016784668 14.96500015258789,5.051000118255615 15.75,5.505000114440918 C16.20199966430664,5.765999794006348 16.71500015258789,5.9039998054504395 17.233999252319336,5.9039998054504395 C17.604000091552734,5.9039998054504395 17.968000411987305,5.835999965667725 18.315000534057617,5.702000141143799 C18.415000915527344,5.663000106811523 18.520000457763672,5.644000053405762 18.628000259399414,5.644000053405762 C18.899999618530273,5.644000053405762 19.166000366210938,5.769999980926514 19.34000015258789,5.98199987411499 C19.996999740600586,6.7829999923706055 20.514999389648438,7.678999900817871 20.878999710083008,8.645999908447266 C21.018999099731445,9.017000198364258 20.892000198364258,9.440999984741211 20.555999755859375,9.72599983215332 C19.885000228881836,10.293999671936035 19.5,11.123000144958496 19.5,12 C19.5,12.876999855041504 19.885000228881836,13.706000328063965 20.55699920654297,14.27400016784668 C20.89299964904785,14.559000015258789 21.020000457763672,14.982000350952148 20.8799991607666,15.354000091552734 C20.514999389648438,16.320999145507812 19.996999740600586,17.216999053955078 19.340999603271484,18.01799964904785 C19.16699981689453,18.229999542236328 18.900999069213867,18.356000900268555 18.628999710083008,18.356000900268555 C18.520999908447266,18.356000900268555 18.415000915527344,18.336000442504883 18.31599998474121,18.29800033569336 C17.9689998626709,18.163999557495117 17.604999542236328,18.09600067138672 17.235000610351562,18.09600067138672 C16.715999603271484,18.09600067138672 16.202999114990234,18.233999252319336 15.75100040435791,18.4950008392334 C14.96500015258789,18.948999404907227 14.4350004196167,19.72599983215332 14.29699993133545,20.62700080871582 C14.239999771118164,21 13.939000129699707,21.304000854492188 13.5649995803833,21.368000030517578 C13.045999526977539,21.45599937438965 12.520000457763672,21.5 12,21.5 C11.479999542236328,21.5 10.954000473022461,21.45599937438965 10.437000274658203,21.368000030517578 C10.062999725341797,21.304000854492188 9.76200008392334,21 9.704000473022461,20.62700080871582 C9.565999984741211,19.72599983215332 9.03499984741211,18.948999404907227 8.25,18.4950008392334 C7.797999858856201,18.233999252319336 7.284999847412109,18.09600067138672 6.765999794006348,18.09600067138672 C6.395999908447266,18.09600067138672 6.0320000648498535,18.163999557495117 5.684999942779541,18.29800033569336 C5.585000038146973,18.336999893188477 5.480000019073486,18.356000900268555 5.372000217437744,18.356000900268555 C5.099999904632568,18.356000900268555 4.834000110626221,18.229999542236328 4.659999847412109,18.01799964904785 C4.002999782562256,17.216999053955078 3.484999895095825,16.320999145507812 3.121000051498413,15.354000091552734 C2.9809999465942383,14.982999801635742 3.1080000400543213,14.559000015258789 3.444000005722046,14.27400016784668 C4.114999771118164,13.706000328063965 4.5,12.876999855041504 4.5,12 C4.5,11.123000144958496 4.114999771118164,10.293999671936035 3.443000078201294,9.72599983215332 C3.1070001125335693,9.440999984741211 2.9800000190734863,9.017999649047852 3.119999885559082,8.645999908447266 C3.484999895095825,7.678999900817871 4.002999782562256,6.7829999923706055 4.659999847412109,5.98199987411499 C4.834000110626221,5.769999980926514 5.099999904632568,5.644000053405762 5.372000217437744,5.644000053405762 C5.480000019073486,5.644000053405762 5.585999965667725,5.664000034332275 5.684999942779541,5.702000141143799 C6.0320000648498535,5.835999965667725 6.395999908447266,5.9039998054504395 6.765999794006348,5.9039998054504395 C7.284999847412109,5.9039998054504395 7.797999858856201,5.765999794006348 8.25,5.505000114440918 C9.03600025177002,5.051000118255615 9.565999984741211,4.27400016784668 9.704000473022461,3.372999906539917 C9.76200008392334,3 10.062999725341797,2.696000099182129 10.437000274658203,2.631999969482422 C10.954000473022461,2.5439999103546143 11.479999542236328,2.5 12,2.5"></path></g></g><g opacity="1" transform="matrix(1,0,0,1,0,0)"><path fill="url(#__lottie_element_12)" fill-opacity="1" d=" M12,8 C9.791000366210938,8 8,9.791000366210938 8,12 C8,14.208999633789062 9.791000366210938,16 12,16 C14.208999633789062,16 16,14.208999633789062 16,12 C16,9.791000366210938 14.208999633789062,8 12,8 C12,8 12,8 12,8z"></path></g></g></g></g></svg>