<svg xmlns="http://www.w3.org/2000/svg" xmlns:xlink="http://www.w3.org/1999/xlink" viewBox="0 0 512 512" width="512" height="512" style="width: 100%; height: 100%; transform: translate3d(0,0,0);" preserveAspectRatio="xMidYMid meet"><defs><clipPath id="__lottie_element_11"><rect width="512" height="512" x="0" y="0"></rect></clipPath><clipPath id="__lottie_element_13"><path d="M0,0 L100,0 L100,100 L0,100z"></path></clipPath></defs><g clip-path="url(#__lottie_element_11)"><g clip-path="url(#__lottie_element_13)" style="display: block;" transform="matrix(5.119999885559082,0,0,5.119999885559082,0,0)" opacity="1"><g style="display: block;" transform="matrix(1,0,0,1,0,0)" opacity="1"><g opacity="1" transform="matrix(1,0,0,1,0,0)"><path fill-rule="evenodd" fill="rgb(255,255,255)" fill-opacity="1" d=" M69.56400299072266,21.48900032043457 C71.37999725341797,19.993999481201172 74.11699676513672,21.28499984741211 74.11699676513672,23.63800048828125 C74.11699676513672,23.63800048828125 74.11699676513672,75.77999877929688 74.11699676513672,75.77999877929688 C74.11699676513672,78.13200378417969 71.37999725341797,79.42400360107422 69.56400299072266,77.92900085449219 C69.56400299072266,77.92900085449219 49.52899932861328,61.42900085449219 49.52899932861328,61.42900085449219 C49.05449676513672,61.038414001464844 48.45858383178711,60.824806213378906 47.84400177001953,60.82500076293945 C47.84400177001953,60.82500076293945 33,60.82500076293945 33,60.82500076293945 C26.860000610351562,60.82500076293945 21.882999420166016,55.847999572753906 21.882999420166016,49.70800018310547 C21.882999420166016,43.56800079345703 26.860000610351562,38.59199905395508 33,38.59199905395508 C33,38.59199905395508 47.84400177001953,38.59199905395508 47.84400177001953,38.59199905395508 C48.45870590209961,38.591915130615234 49.05463409423828,38.37794494628906 49.52899932861328,37.98699951171875 C49.52899932861328,37.98699951171875 69.56400299072266,21.489999771118164 69.56400299072266,21.489999771118164 C69.56400299072266,21.489999771118164 69.56400299072266,21.48900032043457 69.56400299072266,21.48900032043457z M44.117000579833984,65.25900268554688 C44.117000579833984,65.25900268554688 35.21699905395508,65.25900268554688 35.21699905395508,65.25900268554688 C35.21699905395508,65.25900268554688 35.21699905395508,74.70899963378906 35.21699905395508,74.70899963378906 C35.21699905395508,77.15019989013672 37.22580337524414,79.15899658203125 39.66699981689453,79.15899658203125 C42.10819625854492,79.15899658203125 44.117000579833984,77.15019989013672 44.117000579833984,74.70899963378906 C44.117000579833984,74.70899963378906 44.117000579833984,65.25900268554688 44.117000579833984,65.25900268554688 C44.117000579833984,65.25900268554688 44.117000579833984,65.25900268554688 44.117000579833984,65.25900268554688z M78.55000305175781,23.63800048828125 C78.55000305175781,17.538000106811523 71.4540023803711,14.1899995803833 66.74600219726562,18.066999435424805 C66.74600219726562,18.066999435424805 47.20500183105469,34.159000396728516 47.20500183105469,34.159000396728516 C47.20500183105469,34.159000396728516 33,34.159000396728516 33,34.159000396728516 C24.41200065612793,34.159000396728516 17.450000762939453,41.12099838256836 17.450000762939453,49.70899963378906 C17.450000762939453,57.54499816894531 23.2450008392334,64.0270004272461 30.783000946044922,65.10299682617188 C30.783000946044922,65.10299682617188 30.783000946044922,74.70899963378906 30.783000946044922,74.70899963378906 C30.783000946044922,79.58234405517578 34.793155670166016,83.59249877929688 39.666500091552734,83.59249877929688 C44.53984451293945,83.59249877929688 48.54999923706055,79.58234405517578 48.54999923706055,74.70899963378906 C48.54999923706055,74.70899963378906 48.54999923706055,66.36699676513672 48.54999923706055,66.36699676513672 C48.54999923706055,66.36699676513672 66.74600219726562,81.35199737548828 66.74600219726562,81.35199737548828 C71.4540023803711,85.22899627685547 78.55000305175781,81.87999725341797 78.55000305175781,75.78199768066406 C78.55000305175781,75.78199768066406 78.55000305175781,23.636999130249023 78.55000305175781,23.636999130249023 C78.55000305175781,23.636999130249023 78.55000305175781,23.63800048828125 78.55000305175781,23.63800048828125z"></path></g></g></g></g></svg>